<svg xmlns="http://www.w3.org/2000/svg" width="85" height="85" viewBox="0 0 85 85">
  <g id="Group_395" data-name="Group 395" transform="translate(-169 -704)">
    <g id="Ellipse_7" data-name="Ellipse 7" transform="translate(169 704)" fill="#fff" stroke="#f5f5f5" stroke-width="4">
      <circle cx="42.5" cy="42.5" r="42.5" stroke="none"/>
      <circle cx="42.5" cy="42.5" r="40.5" fill="none"/>
    </g>
    <g id="classroom" transform="translate(185.935 720.197)">
      <path id="Path_1" data-name="Path 1" d="M244.153,43.232V28.552a1.585,1.585,0,0,1,1.585-1.585h20.916a1.585,1.585,0,0,1,1.585,1.585V43.232a1.585,1.585,0,0,1-1.585,1.585H245.738A1.585,1.585,0,0,1,244.153,43.232Z" transform="translate(-220.126 -22.957)" fill="#46738c"/>
      <path id="Path_2" data-name="Path 2" d="M249.375,93.385a.787.787,0,0,1-.488-1.405l6.452-5.087a.787.787,0,1,1,.975,1.236l-6.452,5.087A.785.785,0,0,1,249.375,93.385Z" transform="translate(-224.124 -76.833)" fill="#ff8c46"/>
      <circle id="Ellipse_1" data-name="Ellipse 1" cx="3.428" cy="3.428" r="3.428" transform="translate(9.197 1.504)" fill="#ffb69e"/>
      <path id="Path_3" data-name="Path 3" d="M134.16,244.208a2,2,0,0,1-2-2V226.264a2,2,0,1,1,3.991,0v15.948A2,2,0,0,1,134.16,244.208Z" transform="translate(-119.159 -200.843)" fill="#343e6b"/>
      <path id="Path_4" data-name="Path 4" d="M85.216,244.208a2,2,0,0,1-2-2V226.264a2,2,0,1,1,3.991,0v15.948A2,2,0,0,1,85.216,244.208Z" transform="translate(-75.031 -200.843)" fill="#414b82"/>
      <path id="Path_5" data-name="Path 5" d="M64.506,87.719a1.654,1.654,0,0,0-2.278-.533l-3.35,2.08V86.173a3.937,3.937,0,0,0-3.93-3.9H46a3.975,3.975,0,0,0-4,3.915V98.417a1.663,1.663,0,1,0,3.325,0V86.207A.669.669,0,0,1,46,85.6h.06V98.247H54.87V85.587h.078a.635.635,0,0,1,.637.6v6.05a1.655,1.655,0,0,0,2.527,1.4L63.974,90A1.655,1.655,0,0,0,64.506,87.719Z" transform="translate(-37.873 -72.825)" fill="#252d5c"/>
      <path id="Path_6" data-name="Path 6" d="M142,87.719a1.654,1.654,0,0,0-2.278-.533l-3.35,2.08V86.173a3.937,3.937,0,0,0-3.93-3.9h-4.482V98.247h4.4V85.586h.078a.635.635,0,0,1,.637.6v6.05a1.655,1.655,0,0,0,2.527,1.4L141.471,90A1.654,1.654,0,0,0,142,87.719Z" transform="translate(-115.37 -72.825)" fill="#1b224a"/>
      <path id="Path_7" data-name="Path 7" d="M249.764,130.4a1.654,1.654,0,0,0-2.278-.533l1.745,2.811A1.654,1.654,0,0,0,249.764,130.4Z" transform="translate(-223.131 -115.509)" fill="#ffb69e"/>
      <g id="Group_372" data-name="Group 372" transform="translate(4.133 14.351)">
        <rect id="Rectangle_141" data-name="Rectangle 141" width="3.308" height="0.705" transform="translate(21.364 3.189) rotate(-121.506)" fill="#fff"/>
        <path id="Path_8" data-name="Path 8" d="M42,237.56v.858a1.663,1.663,0,1,0,3.325,0v-.858Z" transform="translate(-42.001 -227.177)" fill="#fff"/>
      </g>
      <path id="Path_9" data-name="Path 9" d="M42,245.84v.043a1.663,1.663,0,1,0,3.325,0v-.043Z" transform="translate(-37.868 -220.291)" fill="#ffb69e"/>
      <path id="Path_10" data-name="Path 10" d="M102.183,82.278l2.537,6.658,2.538-6.658Z" transform="translate(-92.127 -72.825)" fill="#fff"/>
      <path id="Path_11" data-name="Path 11" d="M118.206,84.546l-.564-1.025.486-.883a.242.242,0,0,0-.212-.358h-1.628a.242.242,0,0,0-.212.358l.487.886L116,84.547a.685.685,0,0,0-.071.464l.347,1.76.825,2.167.826-2.167.349-1.759A.685.685,0,0,0,118.206,84.546Z" transform="translate(-104.509 -72.827)" fill="#ff3c3c"/>
      <rect id="Rectangle_142" data-name="Rectangle 142" width="2.196" height="0.677" transform="translate(13.821 14.569)" fill="#252d5c"/>
      <g id="Group_373" data-name="Group 373" transform="translate(34.044 30.299)">
        <circle id="Ellipse_2" data-name="Ellipse 2" cx="3.345" cy="3.345" r="3.345" transform="translate(4.84)" fill="#80391b"/>
        <path id="Path_12" data-name="Path 12" d="M358.445,372.929H349.78a3.844,3.844,0,0,0-3.838,3.8v3.743h3.228v-3.727a.609.609,0,0,1,.61-.589h.032v4.315h8.549v-4.315h.084a.609.609,0,0,1,.61.589v3.727h3.228v-3.743A3.844,3.844,0,0,0,358.445,372.929Z" transform="translate(-345.942 -365.172)" fill="#80391b"/>
      </g>
      <path id="Path_13" data-name="Path 13" d="M358.446,372.929H355.8a2.6,2.6,0,0,1-3.322,0h-2.7a3.844,3.844,0,0,0-3.838,3.8v2.349h3.228v-2.333a.609.609,0,0,1,.61-.589h.032v4.315h8.549v-4.315h.084a.609.609,0,0,1,.61.589v2.333h3.228v-2.349A3.845,3.845,0,0,0,358.446,372.929Z" transform="translate(-311.899 -334.873)" fill="#55c7a6"/>
      <g id="Group_374" data-name="Group 374" transform="translate(17.024 30.299)">
        <circle id="Ellipse_3" data-name="Ellipse 3" cx="3.345" cy="3.345" r="3.345" transform="translate(4.84)" fill="#ffb69e"/>
        <path id="Path_14" data-name="Path 14" d="M185.488,372.929h-8.665a3.844,3.844,0,0,0-3.838,3.8v3.743h3.228v-3.727a.609.609,0,0,1,.61-.589h.032v4.315H185.4v-4.315h.084a.609.609,0,0,1,.61.589v3.727h3.228v-3.743A3.844,3.844,0,0,0,185.488,372.929Z" transform="translate(-172.985 -365.172)" fill="#ffb69e"/>
      </g>
      <path id="Path_15" data-name="Path 15" d="M185.489,372.929h-2.778a2.6,2.6,0,0,1-3.322,0h-2.565a3.844,3.844,0,0,0-3.838,3.8v2.349h3.228v-2.333a.609.609,0,0,1,.61-.589h.032v4.315h8.549v-4.315h.084a.609.609,0,0,1,.61.589v2.333h3.228v-2.349A3.844,3.844,0,0,0,185.489,372.929Z" transform="translate(-155.962 -334.873)" fill="#252d5c"/>
      <g id="Group_375" data-name="Group 375" transform="translate(0 30.246)">
        <circle id="Ellipse_4" data-name="Ellipse 4" cx="3.345" cy="3.345" r="3.345" transform="translate(4.839)" fill="#ffb69e"/>
        <path id="Path_16" data-name="Path 16" d="M12.5,372.387H3.838A3.844,3.844,0,0,0,0,376.187v3.743H3.228V376.2a.609.609,0,0,1,.61-.589H3.87v4.315h8.549v-4.315H12.5a.609.609,0,0,1,.61.589v3.727h3.228v-3.743A3.844,3.844,0,0,0,12.5,372.387Z" transform="translate(0 -364.63)" fill="#ffb69e"/>
      </g>
      <path id="Path_17" data-name="Path 17" d="M12.5,372.387H9.726a2.6,2.6,0,0,1-3.322,0H3.838A3.844,3.844,0,0,0,0,376.187v2.349H3.228V376.2a.609.609,0,0,1,.61-.589H3.87v4.315h8.549v-4.315H12.5a.609.609,0,0,1,.61.589v2.333h3.228v-2.349A3.844,3.844,0,0,0,12.5,372.387Z" transform="translate(0 -334.384)" fill="#78beff"/>
      <g id="Group_376" data-name="Group 376" transform="translate(26.482 36.294)">
        <circle id="Ellipse_5" data-name="Ellipse 5" cx="3.345" cy="3.345" r="3.345" transform="translate(4.839)" fill="#ffb69e"/>
        <path id="Path_18" data-name="Path 18" d="M281.6,433.843h-8.665a3.844,3.844,0,0,0-3.838,3.8v3.743h3.228V437.66a.609.609,0,0,1,.61-.589h.032v4.315h8.549v-4.315h.084a.609.609,0,0,1,.61.589v3.727h3.228v-3.743A3.844,3.844,0,0,0,281.6,433.843Z" transform="translate(-269.099 -426.086)" fill="#ffb69e"/>
      </g>
      <path id="Path_19" data-name="Path 19" d="M281.6,433.843h-2.646a2.6,2.6,0,0,1-3.322,0h-2.7a3.844,3.844,0,0,0-3.838,3.8v2.349h3.228V437.66a.609.609,0,0,1,.61-.589h.032v4.315h8.549v-4.315h.084a.609.609,0,0,1,.61.589v2.333h3.228v-2.349A3.844,3.844,0,0,0,281.6,433.843Z" transform="translate(-242.618 -389.792)" fill="#78beff"/>
      <g id="Group_377" data-name="Group 377" transform="translate(9.461 36.294)">
        <circle id="Ellipse_6" data-name="Ellipse 6" cx="3.345" cy="3.345" r="3.345" transform="translate(4.839)" fill="#ba6746"/>
        <path id="Path_20" data-name="Path 20" d="M108.645,433.843H99.98a3.844,3.844,0,0,0-3.838,3.8v3.743H99.37V437.66a.609.609,0,0,1,.61-.589h.032v4.315h8.549v-4.315h.084a.609.609,0,0,1,.61.589v3.727h3.228v-3.743A3.844,3.844,0,0,0,108.645,433.843Z" transform="translate(-96.142 -426.086)" fill="#ba6746"/>
      </g>
      <path id="Path_21" data-name="Path 21" d="M108.645,433.843h-2.778a2.6,2.6,0,0,1-3.322,0H99.98a3.844,3.844,0,0,0-3.838,3.8v2.349H99.37V437.66a.609.609,0,0,1,.61-.589h.032v4.315h8.549v-4.315h.084a.609.609,0,0,1,.61.589v2.333h3.228v-2.349A3.844,3.844,0,0,0,108.645,433.843Z" transform="translate(-86.681 -389.792)" fill="#ff3c3c"/>
    </g>
  </g>
</svg>
