<svg xmlns="http://www.w3.org/2000/svg" width="85" height="85" viewBox="0 0 85 85">
  <g id="Group_397" data-name="Group 397" transform="translate(-905 -704)">
    <g id="Ellipse_19" data-name="Ellipse 19" transform="translate(905 704)" fill="#fff" stroke="#f5f5f5" stroke-width="4">
      <circle cx="42.5" cy="42.5" r="42.5" stroke="none"/>
      <circle cx="42.5" cy="42.5" r="40.5" fill="none"/>
    </g>
    <g id="calendar" transform="translate(921.645 720.593)">
      <path id="Path_46" data-name="Path 46" d="M37.978,5H1V16.725H51.507V5Z" transform="translate(0 -0.49)" fill="#26b99a"/>
      <ellipse id="Ellipse_9" data-name="Ellipse 9" cx="1.5" cy="2" rx="1.5" ry="2" transform="translate(16.355 6.407)" fill="#38454f"/>
      <ellipse id="Ellipse_10" data-name="Ellipse 10" cx="1.5" cy="2" rx="1.5" ry="2" transform="translate(22.355 6.407)" fill="#38454f"/>
      <ellipse id="Ellipse_11" data-name="Ellipse 11" cx="1.5" cy="2" rx="1.5" ry="2" transform="translate(27.355 6.407)" fill="#38454f"/>
      <ellipse id="Ellipse_12" data-name="Ellipse 12" cx="1.5" cy="2" rx="1.5" ry="2" transform="translate(33.355 6.407)" fill="#38454f"/>
      <path id="Path_47" data-name="Path 47" d="M37.706,0A4.468,4.468,0,0,0,35,.924a4.521,4.521,0,0,1,1.186,1.348,2.705,2.705,0,1,1,1.52,4.942.9.9,0,1,0,0,1.8,4.51,4.51,0,0,0,0-9.019Z" transform="translate(-3.335)" fill="#afb6bb"/>
      <path id="Path_48" data-name="Path 48" d="M33.618,2.52A4.452,4.452,0,0,0,33,4.757h1.8A2.7,2.7,0,0,0,33.618,2.52Z" transform="translate(-3.139 -0.247)" fill="#839594"/>
      <path id="Path_49" data-name="Path 49" d="M27.618,2.52A4.452,4.452,0,0,0,27,4.757h1.8A2.7,2.7,0,0,0,27.618,2.52Z" transform="translate(-2.551 -0.247)" fill="#839594"/>
      <path id="Path_50" data-name="Path 50" d="M35.6,2.273A4.521,4.521,0,0,0,34.411.924,4.422,4.422,0,0,0,29,.924a4.522,4.522,0,0,1,1.186,1.348,2.705,2.705,0,1,1,1.52,4.942.9.9,0,1,0,0,1.8,4.515,4.515,0,0,0,4.51-4.51A4.452,4.452,0,0,0,35.6,2.273Z" transform="translate(-2.747 0)" fill="#afb6bb"/>
      <path id="Path_51" data-name="Path 51" d="M21.618,2.52A4.452,4.452,0,0,0,21,4.757h1.8A2.7,2.7,0,0,0,21.618,2.52Z" transform="translate(-1.962 -0.247)" fill="#839594"/>
      <path id="Path_52" data-name="Path 52" d="M29.6,2.273A4.522,4.522,0,0,0,28.411.924,4.422,4.422,0,0,0,23,.924a4.522,4.522,0,0,1,1.186,1.348,2.705,2.705,0,1,1,1.52,4.942.9.9,0,0,0,0,1.8,4.515,4.515,0,0,0,4.51-4.51A4.452,4.452,0,0,0,29.6,2.273Z" transform="translate(-2.158 0)" fill="#afb6bb"/>
      <path id="Path_53" data-name="Path 53" d="M23.4,2.273A4.522,4.522,0,0,0,22.215.924,4.468,4.468,0,0,0,19.51,0,4.515,4.515,0,0,0,15,4.51h1.8A2.706,2.706,0,1,1,19.51,7.215a.9.9,0,1,0,0,1.8,4.515,4.515,0,0,0,4.51-4.51A4.452,4.452,0,0,0,23.4,2.273Z" transform="translate(-1.373 0)" fill="#afb6bb"/>
      <rect id="Rectangle_144" data-name="Rectangle 144" width="50" height="35" transform="translate(1.355 16.407)" fill="#edeada"/>
      <ellipse id="Ellipse_13" data-name="Ellipse 13" cx="4.5" cy="4" rx="4.5" ry="4" transform="translate(7.355 22.407)" fill="#cec9ae"/>
      <circle id="Ellipse_14" data-name="Ellipse 14" cx="4" cy="4" r="4" transform="translate(22.355 22.407)" fill="#cec9ae"/>
      <ellipse id="Ellipse_15" data-name="Ellipse 15" cx="4.5" cy="4" rx="4.5" ry="4" transform="translate(36.355 22.407)" fill="#cec9ae"/>
      <circle id="Ellipse_16" data-name="Ellipse 16" cx="4.5" cy="4.5" r="4.5" transform="translate(7.355 36.407)" fill="#cec9ae"/>
      <ellipse id="Ellipse_17" data-name="Ellipse 17" cx="4" cy="4.5" rx="4" ry="4.5" transform="translate(22.355 36.407)" fill="#cec9ae"/>
      <circle id="Ellipse_18" data-name="Ellipse 18" cx="4.5" cy="4.5" r="4.5" transform="translate(36.355 36.407)" fill="#26b99a"/>
    </g>
  </g>
</svg>
