<svg xmlns="http://www.w3.org/2000/svg" width="85" height="85" viewBox="0 0 85 85">
  <g id="Group_396" data-name="Group 396" transform="translate(-537 -704)">
    <g id="Ellipse_8" data-name="Ellipse 8" transform="translate(537 704)" fill="#fff" stroke="#f5f5f5" stroke-width="4">
      <circle cx="42.5" cy="42.5" r="42.5" stroke="none"/>
      <circle cx="42.5" cy="42.5" r="40.5" fill="none"/>
    </g>
    <g id="presentation" transform="translate(527.193 720.592)">
      <g id="Group_378" data-name="Group 378" transform="translate(50.22 30.86)">
        <path id="Path_22" data-name="Path 22" d="M397.821,312.576l-5.028-22.4h-2.285l5.142,22.855a1.049,1.049,0,0,0,.457.686,1.03,1.03,0,0,0,.571.114h.229A1,1,0,0,0,397.821,312.576Z" transform="translate(-373.229 -289.949)" fill="#344a5e"/>
        <path id="Path_23" data-name="Path 23" d="M234.286,288.158l-5.028,22.512a1.053,1.053,0,0,0,.8,1.257h.229a.856.856,0,0,0,.571-.114.94.94,0,0,0,.457-.686l5.142-23.084h-2.171Z" transform="translate(-229.236 -288.044)" fill="#344a5e"/>
        <path id="Path_24" data-name="Path 24" d="M332.3,290.178l-.457,20.455a1.127,1.127,0,0,0,1.028,1.143h0a1.215,1.215,0,0,0,1.143-1.029l.457-20.57Z" transform="translate(-320.847 -289.949)" fill="#344a5e"/>
      </g>
      <path id="Path_25" data-name="Path 25" d="M225.859,29.912l25.484.686-.686,28.8-25.484-.8Z" transform="translate(-175.388 -26.707)" fill="#e8eae9"/>
      <g id="Group_379" data-name="Group 379" transform="translate(48.413 0.92)">
        <path id="Path_26" data-name="Path 26" d="M248.066,10.864a1.039,1.039,0,0,1-.457.914,1.039,1.039,0,0,1-.914.457h0l-25.6-.8a1.039,1.039,0,0,1-.914-.457,1.46,1.46,0,0,1,1.028-2.4l25.484.8A1.578,1.578,0,0,1,248.066,10.864Z" transform="translate(-219.04 -8.578)" fill="#f3705a"/>
        <path id="Path_27" data-name="Path 27" d="M240.6,293.53a1.039,1.039,0,0,1-.457.914,1.3,1.3,0,0,1-.914.343h0l-25.6-.686a1.039,1.039,0,0,1-.914-.457,1.46,1.46,0,0,1,1.029-2.4l25.484.8A1.578,1.578,0,0,1,240.6,293.53Z" transform="translate(-212.373 -260.961)" fill="#f3705a"/>
      </g>
      <g id="Group_380" data-name="Group 380" transform="translate(36.3 0.336)">
        <path id="Path_28" data-name="Path 28" d="M152.113,37.226c-.114.457-.457.8-.686.8-.229-.114-.343-.457-.229-.914s.457-.8.686-.8C152.228,36.312,152.342,36.769,152.113,37.226Z" transform="translate(-145.6 -32.757)" fill="#ffd15c"/>
        <path id="Path_29" data-name="Path 29" d="M108.336,36.273c.114.457.457.8.686.8.343-.114.343-.571.229-1.028s-.457-.8-.686-.8C108.222,35.359,108.222,35.816,108.336,36.273Z" transform="translate(-107.308 -31.804)" fill="#ffd15c"/>
        <path id="Path_30" data-name="Path 30" d="M100.105,11.368l1.257-1.143a14.848,14.848,0,0,1-.343-1.714c0-.343-.8-2.4-.457-3.428s.229-1.828,1.943-1.943a2.64,2.64,0,0,1,2.628,1.143c.571.686.457,2.743.457,3.085a9.663,9.663,0,0,1-.8,2.971v.571l1.257,2.171v2.171l-1.257.114-5.485-1.143Z" transform="translate(-99.305 -3.128)" fill="#ffd15c"/>
      </g>
      <path id="Path_31" data-name="Path 31" d="M123.191,72.236l-1.371-2.057v-.571a2.26,2.26,0,0,1-3.314-.229,6.171,6.171,0,0,0,4.8,3.314Z" transform="translate(-80.149 -61.945)" fill="#f7b64c"/>
      <path id="Path_32" data-name="Path 32" d="M241.173,143.511a11.14,11.14,0,0,0,1.257-.571c.229-.114.343-.343.686-.457s.8-.457,1.028-.457.571-.114.686-.114a10.784,10.784,0,0,1,1.028.343s0,.457-.343.457c-.114,0-1.028-.229-1.143-.229s.343.114.343.114.914.114,1.028.114h.114c.114-.114.343,0,.343.229h0c0,.114,0,.114-.114.229a.4.4,0,0,0-.229.114h-.229c-.114,0,0,.229,0,.343a.112.112,0,0,1-.114.114h-.229a.564.564,0,0,1-.114.343c-.114.114-.114,0-.114,0s.114.343-.457.571a6.347,6.347,0,0,1-1.943.229c-.229-.114-1.257.571-1.257.571Z" transform="translate(-189.674 -126.707)" fill="#ffd15c"/>
      <path id="Path_33" data-name="Path 33" d="M98.54,498.221a.594.594,0,0,0,.457-.229,1.221,1.221,0,0,0,0-.914c-.229-.571-.229-.343-.229-.343l-3.085.114a1.7,1.7,0,0,0,0,.8.765.765,0,0,0,.8.457C97.055,498.107,98.083,498.221,98.54,498.221Z" transform="translate(-59.726 -443.477)" fill="#344a5e"/>
      <path id="Path_34" data-name="Path 34" d="M94.874,472.427s-.114.8-.229,1.371a2.438,2.438,0,0,0,.114,1.371c.229.229,1.143.114,1.714.114a4.544,4.544,0,0,0,1.257,0c.343,0,.229-1.028,0-1.6a4.505,4.505,0,0,1-.571-1.6v-.571Z" transform="translate(-58.803 -420.997)" fill="#415a6b"/>
      <path id="Path_35" data-name="Path 35" d="M150.792,491.13l.343.229s.114.114,0,.343a1.154,1.154,0,0,0-.571.229,7.565,7.565,0,0,1-1.714.114,1.782,1.782,0,0,1-1.143-.686,1.673,1.673,0,0,0-.571-.343v.229h-1.371a1.2,1.2,0,0,1,.229-1.143l.457-.457C146.564,489.644,150.792,491.13,150.792,491.13Z" transform="translate(-104.436 -437.186)" fill="#344a5e"/>
      <path id="Path_36" data-name="Path 36" d="M148.739,475.156a3.489,3.489,0,0,1,.8.914c.229.457.229,1.028.686,1.257s1.028.686,1.028.914a3.457,3.457,0,0,0-1.143.229,2.013,2.013,0,0,1-1.828-.114c-.343-.229-.571-.686-1.143-.8-.571-.229-1.143,0-1.257-.229a3.421,3.421,0,0,1,.343-2.057C146.682,474.927,148.739,475.156,148.739,475.156Z" transform="translate(-104.554 -424.183)" fill="#415a6b"/>
      <path id="Path_37" data-name="Path 37" d="M173.363,104.311l.914-.8a12.165,12.165,0,0,1,.343,2.4c0,1.028-.229,1.486,0,1.828s1.028,1.257,1.028,1.828.114.686.457.571,1.6-.343,1.943-.457c.229-.114,2.628-.8,2.628-.8s-.114,2.4,1.143,2.743c0,0-3.657,1.257-4.342,1.371s-2.057.571-2.4.571a1.81,1.81,0,0,1-1.371-.571,4.174,4.174,0,0,1-.8-1.6C173.02,111.053,173.363,104.311,173.363,104.311Z" transform="translate(-128.721 -92.421)" fill="#344a5e"/>
      <path id="Path_38" data-name="Path 38" d="M98.01,103.815a10.745,10.745,0,0,1-5.942,1.371c-3.085-.343-3.428-.343-3.428-.457s1.6-10.742,2.171-14.97h.571a2.366,2.366,0,0,0,4.343-.114h.229l1.371,9.142Z" transform="translate(-53.482 -80.04)" fill="#8ad7f8"/>
      <path id="Path_39" data-name="Path 39" d="M79.841,222.711c4,.914,7.542.914,9.942-.8a39.515,39.515,0,0,1,1.257,4.228c0,.571-.229.457-.229,1.371s0,7.085-.114,8.228a17.508,17.508,0,0,0-.229,3.085,15.088,15.088,0,0,1,.457,3.314,55.3,55.3,0,0,1-.8,6.171,3.215,3.215,0,0,0,.114,1.257s-1.143-.343-1.714.229c-.571.457-1.486.571-1.828,0a26.976,26.976,0,0,1,.229-3.657,49.547,49.547,0,0,0,0-5.828,25.855,25.855,0,0,0-.114-2.857c-.114-1.143-.457-3.771-.571-4.114s-.686-2.285-.686-2.285a16.84,16.84,0,0,1-.457,2.628c-.343,1.257-.914,3.2-1.028,3.543a36.328,36.328,0,0,0-.457,4.342,31.058,31.058,0,0,0,.457,3.428c.114.8.114,3.657.114,4.114v.686a1.435,1.435,0,0,0-1.143-.457,2.445,2.445,0,0,0-1.486.686s-.914-1.028-.914-1.6-.457-1.257-.571-2.4a68.492,68.492,0,0,1,0-6.857,57.8,57.8,0,0,0-.457-7.2C79.5,229.91,79.156,224.882,79.841,222.711Z" transform="translate(-45.255 -198.136)" fill="#344a5e"/>
      <path id="Path_40" data-name="Path 40" d="M149.439,76.845a6.089,6.089,0,0,1,.686,2.514c.114,1.257.457,6.285.686,7.885.229,1.714.914,5.828.914,6.971.114,1.143-.114,2.057.686,2.4a1.572,1.572,0,0,0,1.371,0,12.007,12.007,0,0,1-.914-2.743,45.439,45.439,0,0,0-.686-4.571,53.932,53.932,0,0,1,.8-5.6,39.386,39.386,0,0,0,.343-4,22.674,22.674,0,0,1-3.2-2.171A2.68,2.68,0,0,0,149.439,76.845Z" transform="translate(-107.768 -68.611)" fill="#415a6b"/>
      <g id="Group_381" data-name="Group 381" transform="translate(28.74 9.719)">
        <path id="Path_41" data-name="Path 41" d="M33.672,101.569c-.457.114-.8.8-.914,1.486s-.229,1.486-.229,1.486-1.828-1.943-2.4-2.514a8.091,8.091,0,0,1-1.371-2.285,5.139,5.139,0,0,1,.686-2.4c.343-.571,1.486-3.085,2.057-4.342s1.143-2.285,1.143-2.285a12.276,12.276,0,0,1,.686,2.743,20.144,20.144,0,0,1,0,2.628,7.619,7.619,0,0,0-.343.8,11.5,11.5,0,0,1-1.257,1.943,1.8,1.8,0,0,0,.114.457,1.537,1.537,0,0,0,.686.8c.114.114.229.343.457.457A6.484,6.484,0,0,1,33.672,101.569Z" transform="translate(-28.74 -90.713)" fill="#344a5e"/>
        <path id="Path_42" data-name="Path 42" d="M265.334,103.95l-6.742,6.514a.323.323,0,1,0,.457.457l6.514-6.628C265.791,104.064,265.448,103.721,265.334,103.95Z" transform="translate(-233.89 -102.465)" fill="#344a5e"/>
      </g>
      <path id="Path_43" data-name="Path 43" d="M262.964,152.273h.114a3.079,3.079,0,0,0,.914-.8,2.3,2.3,0,0,0,.457-.914,1.449,1.449,0,0,1-.686-.114h-.229c-.114,0-.114,0-.114.114v.229c0,.114.114.114.114.229h-.229a.4.4,0,0,0-.229.114v.343h-.457a.42.42,0,0,0-.114.343A.892.892,0,0,0,262.964,152.273Z" transform="translate(-208.723 -134.326)" fill="#ffd15c"/>
      <g id="Group_382" data-name="Group 382" transform="translate(31.957 0.001)">
        <path id="Path_44" data-name="Path 44" d="M107.309,4.577a8.057,8.057,0,0,0,0-1.714c-.114-.571.686-1.6,1.257-1.257a1.523,1.523,0,0,0,1.828-.114c.343-.457,1.371.343,1.371,1.143V4.462h.114a4.006,4.006,0,0,0,.343-1.828A2.767,2.767,0,0,0,109.366.006a2.919,2.919,0,0,0-2.743,2.857,2.52,2.52,0,0,0,.686,1.714Z" transform="translate(-101.481 -0.001)" fill="#415a6b"/>
        <path id="Path_45" data-name="Path 45" d="M65.057,69.378a8.459,8.459,0,0,0-.343,2.743c.114,1.257.114,7.2.114,7.885a61.919,61.919,0,0,1-1.143,7.428c-.343.8-1.143,2.743-2.4,2.743a5.472,5.472,0,0,1-2.514-.8s1.486-9.142,1.257-11.085a15.632,15.632,0,0,0,.114-3.657c-.229-1.257-.686-2.743-.686-2.743A26.009,26.009,0,0,1,63,70.749C63.915,70.635,64.257,69.721,65.057,69.378Z" transform="translate(-58.772 -61.945)" fill="#415a6b"/>
      </g>
    </g>
  </g>
</svg>
