<svg xmlns="http://www.w3.org/2000/svg" width="85" height="85" viewBox="0 0 85 85"><g data-name="Group 395"><g data-name="Ellipse 7" fill="#fff" stroke="#f5f5f5" stroke-width="4"><circle cx="42.5" cy="42.5" r="42.5" stroke="none"/><circle cx="42.5" cy="42.5" r="40.5" fill="none"/></g><g transform="translate(16.935 16.197)"><path data-name="Path 1" d="M24.027 20.275V5.595a1.585 1.585 0 0 1 1.585-1.585h20.916a1.585 1.585 0 0 1 1.585 1.585v14.68a1.585 1.585 0 0 1-1.585 1.585H25.612a1.585 1.585 0 0 1-1.585-1.585z" fill="#46738c"/><path data-name="Path 2" d="M25.251 16.552a.787.787 0 0 1-.488-1.405l6.452-5.087a.787.787 0 1 1 .975 1.236l-6.452 5.087a.785.785 0 0 1-.487.169z" fill="#ff8c46"/><circle data-name="Ellipse 1" cx="3.428" cy="3.428" r="3.428" transform="translate(9.197 1.504)" fill="#ffb69e"/><path data-name="Path 3" d="M15.001 43.365a2 2 0 0 1-2-2V25.421a2 2 0 1 1 3.991 0v15.948a2 2 0 0 1-1.991 1.996z" fill="#343e6b"/><path data-name="Path 4" d="M10.185 43.365a2 2 0 0 1-2-2V25.421a2 2 0 1 1 3.991 0v15.948a2 2 0 0 1-1.991 1.996z" fill="#414b82"/><path data-name="Path 5" d="M26.633 14.894a1.654 1.654 0 0 0-2.278-.533l-3.35 2.08v-3.093a3.937 3.937 0 0 0-3.93-3.9H8.127a3.975 3.975 0 0 0-4 3.915v12.229a1.663 1.663 0 1 0 3.325 0v-12.21a.669.669 0 0 1 .675-.607h.06v12.647h8.81v-12.66h.078a.635.635 0 0 1 .637.6v6.05a1.655 1.655 0 0 0 2.527 1.4l5.862-3.637a1.655 1.655 0 0 0 .532-2.281z" fill="#252d5c"/><path data-name="Path 6" d="M26.63 14.894a1.654 1.654 0 0 0-2.278-.533l-3.35 2.08v-3.093a3.937 3.937 0 0 0-3.93-3.9H12.59v15.974h4.4V12.761h.078a.635.635 0 0 1 .637.6v6.05a1.655 1.655 0 0 0 2.527 1.4l5.869-3.636a1.654 1.654 0 0 0 .529-2.281z" fill="#1b224a"/><path data-name="Path 7" d="M26.633 14.891a1.654 1.654 0 0 0-2.278-.533l1.745 2.811a1.654 1.654 0 0 0 .533-2.278z" fill="#ffb69e"/><g data-name="Group 372" fill="#fff"><path data-name="Rectangle 141" d="M25.497 17.54l-1.729-2.82.601-.369 1.73 2.82z"/><path data-name="Path 8" d="M4.132 24.734v.858a1.663 1.663 0 1 0 3.325 0v-.858z"/></g><path data-name="Path 9" d="M4.132 25.549v.043a1.663 1.663 0 1 0 3.325 0v-.043z" fill="#ffb69e"/><path data-name="Path 10" d="M10.056 9.453l2.537 6.658 2.538-6.658z" fill="#fff"/><path data-name="Path 11" d="M13.697 11.719l-.564-1.025.486-.883a.242.242 0 0 0-.212-.358h-1.628a.242.242 0 0 0-.212.358l.487.886-.563 1.023a.685.685 0 0 0-.071.464l.347 1.76.825 2.167.826-2.167.349-1.759a.685.685 0 0 0-.07-.466z" fill="#ff3c3c"/><path data-name="Rectangle 142" fill="#252d5c" d="M13.821 14.569h2.196v.677h-2.196z"/><g data-name="Group 373" transform="translate(34.044 30.299)" fill="#80391b"><circle data-name="Ellipse 2" cx="3.345" cy="3.345" r="3.345" transform="translate(4.84)"/><path data-name="Path 12" d="M12.503 7.757H3.838A3.844 3.844 0 0 0 0 11.557V15.3h3.228v-3.727a.609.609 0 0 1 .61-.589h.032v4.315h8.549v-4.315h.084a.609.609 0 0 1 .61.589V15.3h3.228v-3.743a3.844 3.844 0 0 0-3.838-3.8z"/></g><path data-name="Path 13" d="M46.547 38.056h-2.646a2.6 2.6 0 0 1-3.322 0h-2.7a3.844 3.844 0 0 0-3.838 3.8v2.349h3.228v-2.333a.609.609 0 0 1 .61-.589h.032v4.315h8.549v-4.315h.084a.609.609 0 0 1 .61.589v2.333h3.228v-2.349a3.845 3.845 0 0 0-3.835-3.8z" fill="#55c7a6"/><g data-name="Group 374" transform="translate(17.024 30.299)" fill="#ffb69e"><circle data-name="Ellipse 3" cx="3.345" cy="3.345" r="3.345" transform="translate(4.84)"/><path data-name="Path 14" d="M12.503 7.757H3.838A3.844 3.844 0 0 0 0 11.557V15.3h3.228v-3.727a.609.609 0 0 1 .61-.589h.032v4.315h8.545v-4.315h.084a.609.609 0 0 1 .61.589V15.3h3.228v-3.743a3.844 3.844 0 0 0-3.834-3.8z"/></g><path data-name="Path 15" d="M29.527 38.056h-2.778a2.6 2.6 0 0 1-3.322 0h-2.565a3.844 3.844 0 0 0-3.838 3.8v2.349h3.228v-2.333a.609.609 0 0 1 .61-.589h.032v4.315h8.549v-4.315h.084a.609.609 0 0 1 .61.589v2.333h3.228v-2.349a3.844 3.844 0 0 0-3.838-3.8z" fill="#252d5c"/><g data-name="Group 375" transform="translate(0 30.246)" fill="#ffb69e"><circle data-name="Ellipse 4" cx="3.345" cy="3.345" r="3.345" transform="translate(4.839)"/><path data-name="Path 16" d="M12.5 7.757H3.838A3.844 3.844 0 0 0 0 11.557V15.3h3.228v-3.73a.609.609 0 0 1 .61-.589h.032v4.315h8.549v-4.315h.081a.609.609 0 0 1 .61.589v3.727h3.228v-3.743A3.844 3.844 0 0 0 12.5 7.757z"/></g><path data-name="Path 17" d="M12.5 38.003H9.726a2.6 2.6 0 0 1-3.322 0H3.838A3.844 3.844 0 0 0 0 41.803v2.349h3.228v-2.336a.609.609 0 0 1 .61-.589h.032v4.315h8.549v-4.315h.081a.609.609 0 0 1 .61.589v2.333h3.228V41.8a3.844 3.844 0 0 0-3.838-3.797z" fill="#78beff"/><g data-name="Group 376" transform="translate(26.482 36.294)" fill="#ffb69e"><circle data-name="Ellipse 5" cx="3.345" cy="3.345" r="3.345" transform="translate(4.839)"/><path data-name="Path 18" d="M12.501 7.757H3.836a3.844 3.844 0 0 0-3.838 3.8V15.3h3.228v-3.726a.609.609 0 0 1 .61-.589h.032V15.3h8.549v-4.315h.084a.609.609 0 0 1 .61.589v3.727h3.228v-3.743a3.844 3.844 0 0 0-3.838-3.801z"/></g><path data-name="Path 19" d="M38.982 44.051h-2.646a2.6 2.6 0 0 1-3.322 0h-2.7a3.844 3.844 0 0 0-3.838 3.8V50.2h3.228v-2.332a.609.609 0 0 1 .61-.589h.032v4.315h8.549v-4.315h.084a.609.609 0 0 1 .61.589v2.333h3.228v-2.349a3.844 3.844 0 0 0-3.835-3.801z" fill="#78beff"/><g data-name="Group 377" transform="translate(9.461 36.294)" fill="#ba6746"><circle data-name="Ellipse 6" cx="3.345" cy="3.345" r="3.345" transform="translate(4.839)"/><path data-name="Path 20" d="M12.503 7.757H3.838A3.844 3.844 0 0 0 0 11.557V15.3h3.228v-3.726a.609.609 0 0 1 .61-.589h.032V15.3h8.549v-4.315h.084a.609.609 0 0 1 .61.589v3.727h3.228v-3.743a3.844 3.844 0 0 0-3.838-3.801z"/></g><path data-name="Path 21" d="M21.964 44.051h-2.778a2.6 2.6 0 0 1-3.322 0h-2.565a3.844 3.844 0 0 0-3.838 3.8V50.2h3.228v-2.332a.609.609 0 0 1 .61-.589h.032v4.315h8.549v-4.315h.084a.609.609 0 0 1 .61.589v2.333h3.228v-2.349a3.844 3.844 0 0 0-3.838-3.801z" fill="#ff3c3c"/></g></g></svg>