<svg xmlns="http://www.w3.org/2000/svg" width="85" height="85" viewBox="0 0 85 85"><g data-name="Group 397"><g data-name="Ellipse 19" fill="#fff" stroke="#f5f5f5" stroke-width="4"><circle cx="42.5" cy="42.5" r="42.5" stroke="none"/><circle cx="42.5" cy="42.5" r="40.5" fill="none"/></g><g transform="translate(16.645 16.593)"><path data-name="Path 46" d="M37.978 4.51H1v11.725h50.507V4.51z" fill="#26b99a"/><ellipse data-name="Ellipse 9" cx="1.5" cy="2" rx="1.5" ry="2" transform="translate(16.355 6.407)" fill="#38454f"/><ellipse data-name="Ellipse 10" cx="1.5" cy="2" rx="1.5" ry="2" transform="translate(22.355 6.407)" fill="#38454f"/><ellipse data-name="Ellipse 11" cx="1.5" cy="2" rx="1.5" ry="2" transform="translate(27.355 6.407)" fill="#38454f"/><ellipse data-name="Ellipse 12" cx="1.5" cy="2" rx="1.5" ry="2" transform="translate(33.355 6.407)" fill="#38454f"/><path data-name="Path 47" d="M34.371 0a4.468 4.468 0 0 0-2.706.924 4.521 4.521 0 0 1 1.186 1.348 2.705 2.705 0 1 1 1.52 4.942.9.9 0 1 0 0 1.8 4.51 4.51 0 0 0 0-9.019z" fill="#afb6bb"/><path data-name="Path 48" d="M30.479 2.273a4.452 4.452 0 0 0-.618 2.237h1.8a2.7 2.7 0 0 0-1.182-2.237z" fill="#839594"/><path data-name="Path 49" d="M25.067 2.273a4.452 4.452 0 0 0-.618 2.237h1.8a2.7 2.7 0 0 0-1.182-2.237z" fill="#839594"/><path data-name="Path 50" d="M32.853 2.273A4.521 4.521 0 0 0 31.664.924a4.422 4.422 0 0 0-5.411 0 4.522 4.522 0 0 1 1.186 1.348 2.705 2.705 0 1 1 1.52 4.942.9.9 0 1 0 0 1.8 4.515 4.515 0 0 0 4.51-4.51 4.452 4.452 0 0 0-.616-2.231z" fill="#afb6bb"/><path data-name="Path 51" d="M19.656 2.273a4.452 4.452 0 0 0-.618 2.237h1.8a2.7 2.7 0 0 0-1.182-2.237z" fill="#839594"/><path data-name="Path 52" d="M27.442 2.273A4.522 4.522 0 0 0 26.253.924a4.422 4.422 0 0 0-5.411 0 4.522 4.522 0 0 1 1.186 1.348 2.705 2.705 0 1 1 1.52 4.942.9.9 0 0 0 0 1.8 4.515 4.515 0 0 0 4.51-4.51 4.452 4.452 0 0 0-.616-2.231z" fill="#afb6bb"/><path data-name="Path 53" d="M22.027 2.273A4.522 4.522 0 0 0 20.842.924 4.468 4.468 0 0 0 18.137 0a4.515 4.515 0 0 0-4.51 4.51h1.8a2.706 2.706 0 1 1 2.71 2.705.9.9 0 1 0 0 1.8 4.515 4.515 0 0 0 4.51-4.51 4.452 4.452 0 0 0-.62-2.232z" fill="#afb6bb"/><path data-name="Rectangle 144" fill="#edeada" d="M1.355 16.407h50v35h-50z"/><ellipse data-name="Ellipse 13" cx="4.5" cy="4" rx="4.5" ry="4" transform="translate(7.355 22.407)" fill="#cec9ae"/><circle data-name="Ellipse 14" cx="4" cy="4" r="4" transform="translate(22.355 22.407)" fill="#cec9ae"/><ellipse data-name="Ellipse 15" cx="4.5" cy="4" rx="4.5" ry="4" transform="translate(36.355 22.407)" fill="#cec9ae"/><circle data-name="Ellipse 16" cx="4.5" cy="4.5" r="4.5" transform="translate(7.355 36.407)" fill="#cec9ae"/><ellipse data-name="Ellipse 17" cx="4" cy="4.5" rx="4" ry="4.5" transform="translate(22.355 36.407)" fill="#cec9ae"/><circle data-name="Ellipse 18" cx="4.5" cy="4.5" r="4.5" transform="translate(36.355 36.407)" fill="#26b99a"/></g></g></svg>